<?xml version="1.0" encoding="UTF-8"?>
<svg id="_Слой_2" data-name="Слой 2" xmlns="http://www.w3.org/2000/svg" viewBox="0 0 803.81 803.81">
  <defs>
    <style>
      .cls-1 {
        fill: #2f1a14;
      }

      .cls-2 {
        fill: #ef8c21;
      }
    </style>
  </defs>
  <g id="_Слой_1-2" data-name="Слой 1">
    <g>
      <path class="cls-1" d="M801.93,483.61c1.04-.36,1.89-1.56,1.89-2.66v-158.08c0-1.1-.85-2.3-1.89-2.66l-78.43-27.51c-1.04-.36-1.89-.6-1.89-.52s-.32-.7-.7-1.73l-14.54-35.21c-.45-1-.79-1.8-.76-1.76s.45-.75.93-1.74l36.01-74.92c.48-.99.23-2.44-.55-3.22l-111.78-111.78c-.78-.78-2.23-1.02-3.22-.55l-74.92,36.01c-.99.48-1.77.89-1.74.93s-.76-.31-1.76-.76l-35.21-14.54c-1.03-.39-1.81-.7-1.73-.7s-.15-.85-.52-1.89L483.61,1.89c-.36-1.04-1.56-1.89-2.66-1.89h-158.08c-1.1,0-2.3.85-2.66,1.89l-27.51,78.43c-.36,1.04-.6,1.89-.52,1.89s-.7.32-1.73.7l-35.21,14.54c-1,.45-1.8.79-1.76.76s-.75-.45-1.74-.93l-74.92-36.01c-.99-.48-2.44-.23-3.22.55l-111.78,111.78c-.78.78-1.02,2.23-.55,3.22l36.01,74.92c.48.99.89,1.77.93,1.74s-.31.76-.76,1.76l-14.54,35.21c-.39,1.03-.7,1.81-.7,1.73s-.85.15-1.89.52L1.89,320.2c-1.04.36-1.89,1.56-1.89,2.66v158.08c0,1.1.85,2.3,1.89,2.66l78.43,27.51c1.04.36,1.89.6,1.89.52s.32.7.7,1.73l14.54,35.21c.45,1,.79,1.8.76,1.76s-.45.75-.93,1.74l-36.01,74.92c-.48.99-.23,2.44.55,3.22l111.78,111.78c.78.78,2.23,1.02,3.22.55l74.92-36.01c.99-.48,1.77-.89,1.74-.93s.76.31,1.76.76l35.21,14.54c1.03.39,1.81.7,1.73.7s.15.85.52,1.89l27.51,78.43c.36,1.04,1.56,1.89,2.66,1.89h158.08c1.1,0,2.3-.85,2.66-1.89l27.51-78.43c.36-1.04.6-1.89.52-1.89s.7-.32,1.73-.7l35.21-14.54c1-.45,1.8-.79,1.76-.76s.75.45,1.74.93l74.92,36.01c.99.48,2.44.23,3.22-.55l111.78-111.78c.78-.78,1.02-2.23.55-3.22l-36.01-74.92c-.48-.99-.89-1.77-.93-1.74s.31-.76.76-1.76l14.54-35.21c.39-1.03.7-1.81.7-1.73s.85-.15,1.89-.52l78.43-27.51Z"/>
      <g>
        <circle class="cls-2" cx="401.91" cy="401.91" r="145.76"/>
        <rect class="cls-2" x="213.52" y="177.7" width="36.44" height="100.21" transform="translate(-93.21 230.59) rotate(-45)"/>
        <rect class="cls-2" x="108.37" y="380.9" width="100.21" height="36.44"/>
        <rect class="cls-2" x="177.7" y="553.85" width="100.21" height="36.44" transform="translate(-337.79 328.64) rotate(-45)"/>
        <rect class="cls-2" x="380.9" y="595.24" width="36.44" height="100.21"/>
        <rect class="cls-2" x="553.85" y="525.91" width="36.44" height="100.21" transform="translate(-239.74 573.23) rotate(-45)"/>
        <rect class="cls-2" x="595.24" y="386.47" width="100.21" height="36.44"/>
        <rect class="cls-2" x="525.9" y="213.52" width="100.21" height="36.44" transform="translate(4.84 475.18) rotate(-45)"/>
        <rect class="cls-2" x="386.47" y="108.37" width="36.44" height="100.21"/>
        <rect class="cls-2" x="305.3" y="187.18" width="36.44" height="36.44" transform="translate(-53.98 139.44) rotate(-22.5)"/>
        <rect class="cls-2" x="189.31" y="300.16" width="36.44" height="36.44" transform="translate(-166.03 388.27) rotate(-67.5)"/>
        <rect class="cls-2" x="187.18" y="462.07" width="36.44" height="36.44" transform="translate(-168.17 115.16) rotate(-22.5)"/>
        <rect class="cls-2" x="300.16" y="578.07" width="36.44" height="36.44" transform="translate(-354.36 662.25) rotate(-67.5)"/>
        <rect class="cls-2" x="462.07" y="580.2" width="36.44" height="36.44" transform="translate(-192.44 229.35) rotate(-22.5)"/>
        <rect class="cls-2" x="578.07" y="467.22" width="36.44" height="36.44" transform="translate(-80.39 850.56) rotate(-67.5)"/>
        <rect class="cls-2" x="580.2" y="305.3" width="36.44" height="36.44" transform="translate(-78.25 253.62) rotate(-22.5)"/>
        <rect class="cls-2" x="467.22" y="189.31" width="36.44" height="36.44" transform="translate(107.94 576.59) rotate(-67.5)"/>
      </g>
    </g>
  </g>
</svg>